<?xml version="1.0" standalone="no"?>
<!DOCTYPE svg PUBLIC "-//W3C//DTD SVG 20010904//EN"
 "http://www.w3.org/TR/2001/REC-SVG-20010904/DTD/svg10.dtd">
<svg version="1.0" xmlns="http://www.w3.org/2000/svg"
 width="500.000000pt" height="500.000000pt" viewBox="0 0 500.000000 500.000000"
 preserveAspectRatio="xMidYMid meet">

<g transform="translate(0.000000,500.000000) scale(0.100000,-0.100000)"
fill="#000000" stroke="none">
<path d="M627 4660 c-112 -29 -213 -113 -268 -225 -32 -65 -34 -76 -34 -170 0
-92 3 -106 32 -167 93 -197 299 -287 502 -218 108 36 172 91 231 198 l24 42
820 0 c885 -1 902 -2 1040 -54 197 -75 364 -255 424 -460 53 -181 38 -364 -45
-546 -17 -37 -531 -924 -579 -1000 -40 -62 -89 -93 -137 -87 -75 10 -120 60
-121 135 -1 44 20 84 290 557 161 281 299 533 309 560 70 202 -20 426 -212
524 -101 51 -124 52 -837 49 -658 -4 -661 -4 -746 -27 -371 -103 -642 -362
-744 -713 -65 -226 -58 -435 23 -656 28 -78 75 -163 331 -602 131 -226 252
-435 451 -782 77 -133 88 -161 70 -172 -13 -9 -59 -145 -66 -196 -11 -92 42
-227 120 -306 103 -104 259 -147 390 -109 131 37 207 101 268 224 30 61 32 73
32 166 0 96 -2 104 -37 177 -70 140 -185 215 -349 226 l-91 7 -95 165 c-131
228 -229 397 -379 655 -216 373 -310 538 -338 592 -46 92 -69 196 -69 318 0
136 17 208 80 335 39 77 63 111 133 181 71 73 100 94 180 133 174 85 138 81
875 78 728 -3 680 2 719 -76 24 -49 15 -97 -29 -144 l-33 -37 -164 -3 c-90 -2
-379 -6 -643 -10 l-480 -7 -68 -32 c-168 -80 -267 -244 -254 -423 6 -89 31
-150 134 -326 80 -136 133 -227 333 -579 169 -295 197 -341 261 -420 122 -151
341 -288 543 -340 247 -63 494 -30 735 97 118 62 191 117 276 210 84 93 100
117 290 448 429 748 609 1058 630 1088 12 17 26 22 58 22 156 1 305 97 368
237 94 205 8 438 -199 540 -52 26 -67 28 -167 28 -99 0 -116 -3 -168 -27 -80
-38 -160 -117 -200 -197 -30 -61 -32 -72 -32 -171 0 -102 1 -109 38 -182 20
-42 37 -82 37 -89 0 -14 -119 -223 -517 -909 -314 -542 -308 -533 -399 -619
-152 -143 -291 -196 -514 -195 -119 1 -144 4 -215 28 -44 15 -111 45 -148 67
-94 56 -211 176 -269 274 -225 387 -554 967 -566 997 -20 50 -8 104 30 140 26
24 38 28 92 28 53 0 66 -4 93 -27 18 -16 86 -120 151 -233 66 -113 195 -335
287 -495 93 -159 184 -309 202 -332 103 -126 294 -183 452 -134 137 43 192 96
315 306 235 400 517 887 543 940 38 76 68 167 89 275 24 121 15 320 -21 450
-81 296 -304 555 -583 674 -221 95 -288 100 -1240 92 -408 -3 -749 -3 -757 0
-9 4 -31 30 -51 60 -75 113 -182 174 -317 180 -45 2 -99 -1 -120 -6z m210
-209 c66 -33 103 -102 103 -191 0 -112 -77 -199 -184 -208 -84 -7 -123 4 -171
49 -157 144 -49 393 161 375 28 -2 69 -13 91 -25z m3704 -906 c52 -37 81 -91
87 -160 6 -71 -12 -120 -62 -169 -113 -114 -307 -70 -356 79 -20 61 -9 148 26
198 44 63 102 89 191 85 61 -3 78 -8 114 -33z m-1951 -636 c0 -12 -61 -128
-110 -209 -15 -25 -55 -96 -90 -157 -35 -62 -69 -113 -76 -113 -11 0 -31 31
-141 220 -28 47 -71 120 -97 164 -25 43 -46 85 -46 92 0 12 49 14 280 14 201
0 280 -3 280 -11z m-719 -2081 c86 -29 139 -107 139 -205 0 -65 -13 -99 -53
-142 -97 -102 -265 -92 -344 22 -40 58 -45 154 -10 223 26 51 70 90 116 104
39 12 114 11 152 -2z"/>
</g>
</svg>
